<mxfile host="app.diagrams.net" agent="Mozilla/5.0 (Windows NT 10.0; Win64; x64) AppleWebKit/537.36 (KHTML, like Gecko) Chrome/140.0.0.0 Safari/537.36" version="28.2.3">
  <diagram name="Trang-1" id="4zdAmmL9ZMX3OoHl71JS">
    <mxGraphModel dx="1123" dy="644" grid="1" gridSize="10" guides="1" tooltips="1" connect="1" arrows="1" fold="1" page="1" pageScale="1" pageWidth="827" pageHeight="1169" math="0" shadow="0">
      <root>
        <mxCell id="0" />
        <mxCell id="1" parent="0" />
        <mxCell id="XOmJ1WLNWN3yM4tohgsH-2" value="&lt;font style=&quot;vertical-align: inherit;&quot; dir=&quot;auto&quot;&gt;&lt;font style=&quot;vertical-align: inherit;&quot; dir=&quot;auto&quot;&gt;BBắt Đầu&lt;/font&gt;&lt;/font&gt;" style="ellipse;whiteSpace=wrap;html=1;fontSize=14;" vertex="1" parent="1">
          <mxGeometry x="260" y="40" width="190" height="130" as="geometry" />
        </mxCell>
        <mxCell id="XOmJ1WLNWN3yM4tohgsH-4" value="" style="html=1;shadow=0;dashed=0;align=center;verticalAlign=middle;shape=mxgraph.arrows2.arrow;dy=0.6;dx=40;direction=south;notch=0;" vertex="1" parent="1">
          <mxGeometry x="320" y="180" width="70" height="100" as="geometry" />
        </mxCell>
        <mxCell id="XOmJ1WLNWN3yM4tohgsH-6" value="&lt;font style=&quot;vertical-align: inherit;&quot; dir=&quot;auto&quot;&gt;&lt;font style=&quot;vertical-align: inherit;&quot; dir=&quot;auto&quot;&gt;TThiết bị nhập:bàn phím,file excel...&lt;/font&gt;&lt;/font&gt;" style="rounded=0;whiteSpace=wrap;html=1;" vertex="1" parent="1">
          <mxGeometry x="530" y="320" width="220" height="20" as="geometry" />
        </mxCell>
        <mxCell id="XOmJ1WLNWN3yM4tohgsH-26" style="edgeStyle=orthogonalEdgeStyle;rounded=0;orthogonalLoop=1;jettySize=auto;html=1;exitX=0;exitY=0;exitDx=60;exitDy=21;exitPerimeter=0;" edge="1" parent="1" source="XOmJ1WLNWN3yM4tohgsH-10">
          <mxGeometry relative="1" as="geometry">
            <mxPoint x="360" y="450" as="targetPoint" />
          </mxGeometry>
        </mxCell>
        <mxCell id="XOmJ1WLNWN3yM4tohgsH-10" value="" style="html=1;shadow=0;dashed=0;align=center;verticalAlign=middle;shape=mxgraph.arrows2.arrow;dy=0.6;dx=40;direction=south;notch=0;" vertex="1" parent="1">
          <mxGeometry x="320" y="370" width="70" height="100" as="geometry" />
        </mxCell>
        <mxCell id="XOmJ1WLNWN3yM4tohgsH-13" value="Kiểm tra hợp lệ,tính điểm trung bình" style="rounded=0;whiteSpace=wrap;html=1;" vertex="1" parent="1">
          <mxGeometry x="515" y="520" width="220" height="20" as="geometry" />
        </mxCell>
        <mxCell id="XOmJ1WLNWN3yM4tohgsH-15" value="" style="html=1;shadow=0;dashed=0;align=center;verticalAlign=middle;shape=mxgraph.arrows2.arrow;dy=0.6;dx=40;direction=south;notch=0;" vertex="1" parent="1">
          <mxGeometry x="325" y="600" width="70" height="100" as="geometry" />
        </mxCell>
        <mxCell id="XOmJ1WLNWN3yM4tohgsH-17" value="Lưu trữ dữ liệu điểm" style="rounded=0;whiteSpace=wrap;html=1;" vertex="1" parent="1">
          <mxGeometry x="270" y="710" width="180" height="60" as="geometry" />
        </mxCell>
        <mxCell id="XOmJ1WLNWN3yM4tohgsH-18" value="Lưu trữ vào hệ thống quản lí học&amp;nbsp;" style="rounded=0;whiteSpace=wrap;html=1;" vertex="1" parent="1">
          <mxGeometry x="510" y="720" width="225" height="20" as="geometry" />
        </mxCell>
        <mxCell id="XOmJ1WLNWN3yM4tohgsH-19" value="nhập điểm sinh viên" style="shape=parallelogram;perimeter=parallelogramPerimeter;whiteSpace=wrap;html=1;fixedSize=1;" vertex="1" parent="1">
          <mxGeometry x="265" y="290" width="190" height="60" as="geometry" />
        </mxCell>
        <mxCell id="XOmJ1WLNWN3yM4tohgsH-21" style="edgeStyle=orthogonalEdgeStyle;rounded=0;orthogonalLoop=1;jettySize=auto;html=1;exitX=0;exitY=0;exitDx=60;exitDy=49;exitPerimeter=0;entryX=0;entryY=0;entryDx=30;entryDy=49;entryPerimeter=0;" edge="1" parent="1" source="XOmJ1WLNWN3yM4tohgsH-10" target="XOmJ1WLNWN3yM4tohgsH-10">
          <mxGeometry relative="1" as="geometry" />
        </mxCell>
        <mxCell id="XOmJ1WLNWN3yM4tohgsH-24" value="kiểm tra và xử lí dữ liệu" style="rhombus;whiteSpace=wrap;html=1;" vertex="1" parent="1">
          <mxGeometry x="275" y="475" width="160" height="110" as="geometry" />
        </mxCell>
        <mxCell id="XOmJ1WLNWN3yM4tohgsH-25" value="" style="html=1;shadow=0;dashed=0;align=center;verticalAlign=middle;shape=mxgraph.arrows2.arrow;dy=0.6;dx=40;direction=south;notch=0;" vertex="1" parent="1">
          <mxGeometry x="325" y="780" width="70" height="100" as="geometry" />
        </mxCell>
        <mxCell id="XOmJ1WLNWN3yM4tohgsH-29" style="edgeStyle=orthogonalEdgeStyle;rounded=0;orthogonalLoop=1;jettySize=auto;html=1;exitX=1;exitY=0.5;exitDx=0;exitDy=0;exitPerimeter=0;" edge="1" parent="1" source="XOmJ1WLNWN3yM4tohgsH-4" target="XOmJ1WLNWN3yM4tohgsH-4">
          <mxGeometry relative="1" as="geometry" />
        </mxCell>
        <mxCell id="XOmJ1WLNWN3yM4tohgsH-33" value="Xuất kết quả báo cáo" style="shape=parallelogram;perimeter=parallelogramPerimeter;whiteSpace=wrap;html=1;fixedSize=1;" vertex="1" parent="1">
          <mxGeometry x="270" y="910" width="190" height="60" as="geometry" />
        </mxCell>
        <mxCell id="XOmJ1WLNWN3yM4tohgsH-34" value="Đầu ra: màn hình , máy in" style="rounded=0;whiteSpace=wrap;html=1;" vertex="1" parent="1">
          <mxGeometry x="515" y="920" width="220" height="20" as="geometry" />
        </mxCell>
        <mxCell id="XOmJ1WLNWN3yM4tohgsH-37" value="" style="html=1;shadow=0;dashed=0;align=center;verticalAlign=middle;shape=mxgraph.arrows2.arrow;dy=0.6;dx=40;direction=south;notch=0;" vertex="1" parent="1">
          <mxGeometry x="325" y="980" width="70" height="70" as="geometry" />
        </mxCell>
        <mxCell id="XOmJ1WLNWN3yM4tohgsH-38" value="" style="ellipse;whiteSpace=wrap;html=1;" vertex="1" parent="1">
          <mxGeometry x="300" y="1070" width="120" height="80" as="geometry" />
        </mxCell>
      </root>
    </mxGraphModel>
  </diagram>
</mxfile>
